<svg width="9" height="11" viewBox="0 0 9 11" fill="none" xmlns="http://www.w3.org/2000/svg">
<path d="M4.50163 3.99417L5.79813 5.29068L5.79871 5.29126C6.05523 5.54761 6.22995 5.87427 6.30079 6.22993C6.37163 6.5856 6.33539 6.95428 6.19667 7.28935L8.32401 8.17011L6.19667 7.28935C6.05794 7.62442 5.82296 7.91081 5.52144 8.11231L6.91054 10.1909L5.52144 8.11231C5.21993 8.31382 4.86542 8.42137 4.50277 8.42137C4.14012 8.42137 3.78561 8.31382 3.4841 8.11231L2.11272 10.1644L3.4841 8.11231C3.18258 7.91081 2.9476 7.62441 2.80887 7.28935C2.67015 6.95428 2.63391 6.5856 2.70475 6.22993C2.77559 5.87427 2.95031 5.5476 3.20683 5.29126L3.20897 5.28911L4.50163 3.99417Z" stroke="#0EFFB7" stroke-width="5" stroke-linecap="round" stroke-linejoin="round"/>
</svg>
