<svg width="13" height="13" viewBox="0 0 13 13" fill="none" xmlns="http://www.w3.org/2000/svg">
<path d="M6.50037 2.1645L9.21234 4.87646L9.21246 4.87658C9.74881 5.41258 10.1142 6.09561 10.2623 6.83927C10.4104 7.58293 10.3346 8.35382 10.0446 9.05441C9.75449 9.75501 9.26316 10.3538 8.63272 10.7752C8.00228 11.1965 7.26104 11.4214 6.50277 11.4214C5.7445 11.4214 5.00327 11.1965 4.37282 10.7752C3.74238 10.3538 3.25105 9.75501 2.96099 9.05441C2.67093 8.35382 2.59516 7.58293 2.74328 6.83927C2.89139 6.09561 3.25673 5.41258 3.79308 4.87658L3.79351 4.87615L6.50037 2.1645Z" stroke="#0EFFB7" stroke-linecap="round" stroke-linejoin="round"/>
</svg>
